<?xml version="1.0" encoding="utf-8"?>
<!-- Generator: Adobe Illustrator 16.0.4, SVG Export Plug-In . SVG Version: 6.00 Build 0)  -->
<!DOCTYPE svg PUBLIC "-//W3C//DTD SVG 1.1//EN" "http://www.w3.org/Graphics/SVG/1.1/DTD/svg11.dtd">
<svg version="1.1" id="Layer_1" xmlns="http://www.w3.org/2000/svg" xmlns:xlink="http://www.w3.org/1999/xlink" x="0px" y="0px"
	 width="1000px" height="1000px" viewBox="0 0 1000 1000" enable-background="new 0 0 1000 1000" xml:space="preserve">
<path stroke="#FFFFFF" stroke-width="24" stroke-miterlimit="10" d="M914.095,208.62c-46.331-20.208-100.275,0.959-120.48,47.274
	l-125.39,227.438l-34.562-101.29c-11.116-64.519-67.337-113.615-135.033-113.615c-68.514,0-125.311,50.318-135.428,116.016
	l-34.198,100.279l-126.14-228.828c-20.223-46.315-74.149-67.481-120.509-47.274C36.045,228.837,14.876,282.789,35.1,329.1
	c2.287,5.242,5.024,10.143,8.115,14.718l167.336,303.526l-0.023-0.015l0.709,1.262l39.23,71.159l12.229,20.36
	c0.317,0.778,0.614,1.564,0.954,2.338c20.227,46.304,74.16,67.506,120.492,47.301c20.353-8.895,35.846-24.309,45.108-42.722
	l4.268-6.503c0.018-0.029,0.039-0.053,0.056-0.08l-0.001-0.002l65.057-99.167l0.433-0.677l68.063,106.306l0.008-0.008
	c9.258,18.471,24.774,33.937,45.186,42.853c45.666,19.921,98.742-0.432,119.609-45.39l-0.146,0.374l2.387-4.299l11.827-20.685
	l207.294-376.013c3.07-4.552,5.794-9.424,8.074-14.638C981.588,282.789,960.43,228.837,914.095,208.62z"/>
<path fill="#51687C" d="M635.661,405.459c0-75.674-61.35-137.033-137.031-137.033c-75.657,0-137.032,61.358-137.032,137.033
	c0,75.654,61.375,137.029,137.032,137.029C574.312,542.488,635.661,481.114,635.661,405.459z"/>
<path fill="#5F7CA0" d="M202.864,255.894c20.218,46.312-0.943,100.258-47.274,120.5c-46.341,20.2-100.272-0.944-120.49-47.293
	c-20.224-46.311,0.945-100.263,47.255-120.48C128.715,188.413,182.641,209.579,202.864,255.894z"/>
<polygon fill="#51687C" points="498.63,425.191 377.283,343.159 266.313,668.545 428.44,748.266 498.63,641.276 398.615,485.474 "/>
<polygon fill="#51687C" points="730.95,667.157 619.93,341.809 498.63,423.831 598.657,484.115 498.63,639.926 567.127,746.905 "/>
<polygon fill="#495968" points="498.63,423.831 396.79,484.09 498.63,641.276 598.657,484.115 "/>
<path fill="#5C7691" d="M431.398,669.233c20.228,46.331-0.951,100.277-47.256,120.517c-46.332,20.205-100.266-0.997-120.492-47.301
	c-20.232-46.331,0.928-100.273,47.264-120.482C357.249,601.764,411.198,622.939,431.398,669.233z"/>
<line fill="none" x1="498.63" y1="405.459" x2="408.876" y2="568.99"/>
<line fill="none" x1="498.63" y1="405.459" x2="398.615" y2="326.747"/>
<line fill="none" x1="498.63" y1="405.459" x2="498.63" y2="278.178"/>
<path fill="#FFFFFF" d="M624.154,405.459c0-70.31-56.99-127.282-127.281-127.282c-12.64,0-24.841,1.84-36.353,5.265
	c-29.172,8.679-29.608,27.563-45.893,52.503c-7.787,11.935-38.004,25.25-41.455,39.504c-2.333,9.62-3.571,19.674-3.571,30.01
	c0,70.274,56.979,127.302,127.272,127.302C567.164,532.762,624.154,475.734,624.154,405.459z"/>
<polygon fill="#5F7CA0" points="202.864,255.894 35.1,329.1 250.467,719.751 332.742,491.501 "/>
<polygon fill="#5C7691" points="429.61,667.157 328.275,487.225 245.592,709.668 262.898,740.445 "/>
<path fill="#5F7CA0" d="M793.614,255.894c-20.241,46.312,0.934,100.258,47.25,120.5c46.326,20.2,100.253-0.944,120.502-47.293
	c20.222-46.311-0.937-100.263-47.271-120.48C867.764,188.413,813.819,209.579,793.614,255.894z"/>
<defs>
	<filter id="Adobe_OpacityMaskFilter" filterUnits="userSpaceOnUse" x="210.528" y="647.33" width="223.046" height="150.07">
		<feFlood  style="flood-color:white;flood-opacity:1" result="back"/>
		<feBlend  in="SourceGraphic" in2="back" mode="normal"/>
	</filter>
</defs>
<mask maskUnits="userSpaceOnUse" x="210.528" y="647.33" width="223.046" height="150.07" id="SVGID_1_">
	<g filter="url(#Adobe_OpacityMaskFilter)">
		<linearGradient id="SVGID_2_" gradientUnits="userSpaceOnUse" x1="290.1187" y1="782.3408" x2="324.1996" y2="688.7042">
			<stop  offset="0" style="stop-color:#FFFFFF"/>
			<stop  offset="1" style="stop-color:#000000"/>
		</linearGradient>
		<path fill="url(#SVGID_2_)" d="M262.857,739.963c0.313,0.827,0.432,1.69,0.793,2.486c20.227,46.304,74.16,67.506,120.492,47.301
			c16.642-7.304,40.553-35.261,49.955-49.305l-62.742-18.1l-67.982-16.467l-92.845-58.549l0,0l51.314,93.115L262.857,739.963z"/>
	</g>
</mask>
<path mask="url(#SVGID_1_)" fill="#506371" d="M262.857,739.963c0.313,0.827,0.432,1.69,0.793,2.486
	c20.227,46.304,74.16,67.506,120.492,47.301c16.642-7.304,40.031-35.261,49.432-49.305l-62.219-18.1l-67.982-16.467l-92.845-58.549
	l0,0l52.609,93.53L262.857,739.963z"/>
<path fill="#5C7691" d="M565.036,669.233c-20.205,46.331,0.956,100.277,47.284,120.517c46.318,20.205,100.275-0.997,120.502-47.301
	c20.205-46.331-0.953-100.273-47.267-120.482C639.19,601.764,585.282,622.939,565.036,669.233z"/>
<polygon fill="#5F7CA0" points="793.614,255.894 961.366,329.1 745.998,719.751 663.718,491.501 "/>
<polygon fill="#5C7691" points="566.839,667.157 668.72,483.069 751,711.318 734.171,740.445 "/>
<defs>
	<filter id="Adobe_OpacityMaskFilter_1_" filterUnits="userSpaceOnUse" x="563.171" y="647.33" width="222.742" height="150.07">
		<feFlood  style="flood-color:white;flood-opacity:1" result="back"/>
		<feBlend  in="SourceGraphic" in2="back" mode="normal"/>
	</filter>
</defs>
<mask maskUnits="userSpaceOnUse" x="563.171" y="647.33" width="222.742" height="150.07" id="SVGID_3_">
	<g filter="url(#Adobe_OpacityMaskFilter_1_)">
		
			<linearGradient id="SVGID_4_" gradientUnits="userSpaceOnUse" x1="227.3872" y1="782.3428" x2="261.4708" y2="688.6989" gradientTransform="matrix(-1 0 0 1 933.7256 0)">
			<stop  offset="0" style="stop-color:#FFFFFF"/>
			<stop  offset="1" style="stop-color:#000000"/>
		</linearGradient>
		<path fill="url(#SVGID_4_)" d="M733.615,739.963c-0.347,0.827-0.448,1.69-0.793,2.486
			c-20.227,46.304-74.184,67.506-120.502,47.301c-16.661-7.304-40.57-35.261-49.947-49.305l62.715-18.1l67.975-16.467l92.851-58.549
			l0,0l-51.311,93.115L733.615,739.963z"/>
	</g>
</mask>
<path mask="url(#SVGID_3_)" fill="#506371" d="M733.615,739.963c-0.347,0.827-0.448,1.69-0.793,2.486
	c-20.227,46.304-74.184,67.506-120.502,47.301c-16.661-7.304-39.774-35.261-49.149-49.305l61.917-18.1l67.975-16.467l92.851-58.549
	l0,0l-54.129,97.404L733.615,739.963z"/>
<path opacity="0.04" d="M621.457,435.259c6.729-5.079-4.86,16.382-8.599,24.317c-29.897,63.604-105.716,90.94-169.34,61.043
	c-36.583-17.229-61.166-49.652-69.748-86.207C373.771,434.412,505.542,522.766,621.457,435.259z"/>
<g>
	<path fill="#60C6C6" d="M515.815,408.754v-16.398l10.575-19.728l32.379-16.898l7.52,7.76l16.416-1.422l8.449-6.337h-12.661
		l-15.515-13.942l3.311,10.425l-12.795-6.337l-9.518,2.114l-2.792,11.268l-11.28,6.724l-4.241-19.398l11.968-1.422l-7.021-6.332
		l7.742-6.342l4.932-5.728l6.326-4.129l-2.809-11.267l-7.05-5.629l4.225,13.377l-4.934,7.647l-7.034-10.466v-14.913l9.176-0.925
		l5.617-4.58l-7.759-6.329l5.141-1.913l30.796,12.822l16.175,15.131l16.745,18.682l5.428,21.297l-6.654,0.164l16.105,10.251
		l-1.155,17.908l-3.706,12.685c0,0-14.797-25.349-14.797-23.237c0,2.111,10.968,26.754,10.968,26.754l9.329-4.228v19.02
		l-6.187,16.212l-3.143,21.916l-6.605,15.072l-7.844,14.045l-10.07,14.586h-14.589l1.396-46.608l-3.517-16.036l-11.984-10.548
		l-20.414,10.548l-21.838-10.548L515.815,408.754z"/>
	<polygon fill="#60C6C6" points="453.582,308.551 457.35,316.294 457.35,326.76 443.988,331.795 443.988,341.771 422.864,344.471 
		415.105,353.619 408.849,357.833 403.147,374.046 398.621,360.661 388.353,362.067 385.533,379.684 389.759,391.649 
		392.579,408.754 408.849,405.212 424.271,416.301 440.46,429.669 448.464,443.061 472.146,453.62 467.644,469.997 464.406,487.302 
		448.464,490.972 441.164,507.15 440.46,519.131 440.46,519.131 432.167,517.785 420.752,507.836 408.849,473.338 389.971,443.321 
		388.353,414.187 382.522,387.416 373.858,375.448 380.842,350.746 386.921,332.536 408.849,316.958 431.098,294.575 
		460.307,283.634 448.464,299.397 453.582,303.627 	"/>
	<polygon opacity="0.15" points="380.842,350.746 388.353,362.067 373.858,375.448 	"/>
	<polygon opacity="0.21" points="388.353,362.067 386.921,332.536 380.842,350.746 	"/>
	<polygon opacity="0.15" points="386.921,332.536 408.849,316.958 414.581,335.927 	"/>
	<polygon opacity="0.18" points="386.921,332.536 414.581,335.927 398.621,360.661 	"/>
	<polygon opacity="0.1" points="408.849,316.958 431.098,294.575 422.995,318.423 414.581,335.927 	"/>
	<polygon opacity="0.02" points="431.098,294.575 448.464,299.397 441.485,311.364 	"/>
	<polygon opacity="0.07" points="441.485,311.364 422.995,318.423 431.098,294.575 	"/>
	<polygon opacity="0.13" points="422.995,318.423 443.988,331.795 441.485,311.364 	"/>
	<polygon opacity="0.07" points="441.485,311.364 453.582,308.551 453.582,303.627 448.464,299.397 	"/>
	<polygon opacity="0.02" points="441.485,311.364 457.35,326.76 457.35,316.294 453.582,308.551 	"/>
	<polygon opacity="0.15" points="441.485,311.364 443.988,331.795 457.35,326.76 	"/>
	<polygon opacity="0.05" points="448.464,299.397 460.307,283.634 431.098,294.575 	"/>
	<polygon opacity="0.08" points="422.995,318.423 422.864,344.471 443.988,331.795 	"/>
	<polygon opacity="0.05" points="422.864,344.471 443.988,341.771 443.988,331.795 	"/>
	<polygon opacity="0.14" points="414.581,335.927 422.864,344.471 422.995,318.423 	"/>
	<polygon opacity="0.08" points="398.621,360.661 408.849,357.833 417.544,350.746 414.581,335.927 	"/>
	<polygon opacity="0.07" points="417.544,350.746 422.864,344.471 414.581,335.927 	"/>
	<polygon opacity="0.21" points="388.353,362.067 386.921,332.536 398.621,360.661 	"/>
	<polygon opacity="0.14" points="398.621,360.661 403.147,374.046 408.849,357.833 	"/>
	<polygon opacity="0.21" points="373.858,375.448 382.522,387.416 385.533,379.684 388.353,362.067 	"/>
	<polygon opacity="0.28" points="382.522,387.416 388.353,414.187 392.579,408.754 	"/>
	<polygon opacity="0.21" points="392.579,408.754 389.759,391.649 385.533,379.684 382.522,387.416 	"/>
	<polygon opacity="0.15" points="388.353,414.187 398.621,432.128 440.46,429.669 408.849,405.212 392.579,408.754 	"/>
	<polygon opacity="0.28" points="398.621,432.128 389.971,443.321 388.353,414.187 	"/>
	<polygon fill="#60C6C6" points="479.199,319.113 487.637,307.847 500.109,301.381 500.109,295.876 503.142,289.548 
		493.279,283.634 480.595,290.231 480.595,298.689 472.146,311.364 479.199,319.113 	"/>
	<polygon opacity="0.15" points="398.621,432.128 408.849,473.338 389.971,443.321 	"/>
	<polygon opacity="0.12" points="398.621,432.128 438.944,460.658 472.146,453.62 448.464,443.061 440.46,429.669 	"/>
	<polygon opacity="0.21" points="438.944,460.658 414.415,489.429 408.069,472.117 398.621,432.128 	"/>
	<polygon opacity="0.15" points="438.944,460.658 464.406,487.302 472.146,453.62 	"/>
	<polygon opacity="0.23" points="438.944,460.658 464.406,487.302 448.464,490.972 424.616,477.472 	"/>
	<polygon opacity="0.35" points="424.616,477.472 432.233,517.855 420.752,507.836 	"/>
	<polygon opacity="0.27" points="414.415,489.429 420.752,507.836 424.616,477.472 	"/>
	<polygon opacity="0.3" points="424.616,477.472 441.164,507.15 448.464,490.972 	"/>
	<polygon opacity="0.3" points="441.164,507.15 432.233,517.855 424.616,477.472 	"/>
	<polygon opacity="0.24" points="441.164,507.15 440.46,519.131 432.233,517.855 	"/>
	<polygon opacity="0.07" points="479.199,319.113 480.595,298.689 472.146,311.364 	"/>
	<polygon opacity="0.1" points="480.595,298.689 500.109,301.381 487.637,307.847 479.199,319.113 	"/>
	<polygon opacity="0.05" points="480.595,298.689 493.279,283.634 480.595,290.231 	"/>
	<polygon opacity="0.02" points="480.595,298.689 493.279,283.634 503.142,289.548 500.109,295.876 500.109,301.381 	"/>
	<polygon opacity="0.12" points="526.391,372.628 539.08,405.196 518.623,423.521 515.815,408.754 515.815,392.356 	"/>
	<polygon opacity="0.18" points="539.08,405.196 560.875,423.521 540.461,434.069 518.623,423.521 	"/>
	<polygon opacity="0.07" points="526.391,372.628 558.77,355.73 560.875,375.448 539.08,405.196 	"/>
	<polygon opacity="0.14" points="539.08,405.196 569.635,394.21 560.875,375.448 	"/>
	<polygon opacity="0.21" points="560.875,423.521 569.635,394.21 539.08,405.196 	"/>
	<polygon opacity="0.21" points="569.635,394.21 585.183,418.662 560.875,423.521 	"/>
	<polygon opacity="0.12" points="585.183,418.662 572.859,434.069 560.875,423.521 	"/>
	<polygon opacity="0.18" points="572.859,434.069 576.376,450.105 589.392,437.404 585.183,418.662 	"/>
	<polygon opacity="0.31" points="589.392,437.404 614.088,453.011 575.636,470.454 576.376,450.105 	"/>
	<polygon opacity="0.35" points="614.088,453.011 608.088,467.038 599.639,482.128 593.428,490.972 575.636,470.454 	"/>
	<polygon opacity="0.31" points="593.428,490.972 589.568,496.714 574.979,496.714 575.636,470.454 	"/>
	<polygon opacity="0.16" points="560.875,375.448 566.289,363.49 558.77,355.73 	"/>
	<polygon opacity="0.1" points="566.289,363.73 582.705,362.317 576.617,405.463 569.635,394.461 560.875,375.697 	"/>
	<polygon opacity="0.09" points="582.705,362.067 591.154,355.73 603.12,373.337 576.617,405.463 	"/>
	<polygon opacity="0.17" points="603.12,373.337 614.088,400.091 576.617,405.463 	"/>
	<polygon opacity="0.22" points="585.183,418.662 614.088,400.091 576.617,405.463 	"/>
	<polygon opacity="0.17" points="589.392,437.404 614.088,400.091 585.183,418.662 	"/>
	<polygon opacity="0.16" points="614.088,400.091 618.126,428.763 623.417,414.883 623.417,395.863 	"/>
	<polygon opacity="0.2" points="618.126,428.763 589.392,437.404 614.088,400.091 	"/>
	<polygon opacity="0.25" points="618.126,428.763 616.315,437.404 614.088,453.011 589.392,437.404 	"/>
	<polygon opacity="0.02" points="529.904,365.981 525.663,350.746 525.663,346.583 537.631,345.161 	"/>
	<polygon opacity="0.07" points="529.904,365.981 541.185,359.257 542.494,350.746 543.977,347.989 537.631,345.161 	"/>
	<polygon opacity="0.04" points="537.631,345.161 530.61,338.829 550.836,335.927 	"/>
	<polygon opacity="0.07" points="550.836,335.927 553.494,345.875 543.977,347.989 537.631,345.161 	"/>
	<polygon opacity="0.02" points="550.836,335.927 549.61,322.631 543.284,326.76 530.61,338.829 	"/>
	<polygon opacity="0.07" points="549.61,322.631 569.635,326.76 550.836,335.927 	"/>
	<polygon opacity="0.16" points="550.836,335.927 562.979,341.788 566.289,352.213 553.494,345.875 	"/>
	<polygon opacity="0.14" points="562.979,341.788 589.019,338.132 569.635,326.76 550.836,335.927 	"/>
	<polygon opacity="0.21" points="589.019,338.132 578.493,355.73 562.979,341.788 	"/>
	<polygon opacity="0.14" points="589.019,338.132 606.673,355.73 594.498,350.746 591.154,355.73 578.493,355.73 	"/>
	<polygon opacity="0.09" points="589.019,338.132 591.154,315.588 607.899,334.27 	"/>
	<polygon opacity="0.11" points="607.899,334.27 613.327,355.566 606.673,355.73 589.019,338.132 	"/>
	<polygon opacity="0.21" points="594.498,350.746 614.088,360.447 603.12,373.337 591.154,355.73 	"/>
	<polygon opacity="0.2" points="614.088,360.447 617.917,396.574 621.623,383.889 622.778,365.981 	"/>
	<polygon opacity="0.31" points="614.088,360.447 617.917,396.574 603.12,373.337 	"/>
	<polygon opacity="0.24" points="569.635,326.76 591.154,315.588 589.019,338.132 	"/>
	<polygon opacity="0.07" points="591.154,315.588 574.979,300.457 562.979,306.492 	"/>
	<polygon opacity="0.11" points="562.979,306.492 569.635,326.76 591.154,315.588 	"/>
	<polygon opacity="0.15" points="562.979,306.492 549.61,322.631 569.635,326.76 	"/>
	<polygon opacity="0.24" points="562.979,306.492 541.185,300.457 545.56,310.37 	"/>
	<polygon opacity="0.24" points="562.979,306.492 549.61,322.631 545.56,310.37 	"/>
	<polygon opacity="0.07" points="562.979,306.492 545.56,287.635 539.043,289.548 546.802,295.876 541.185,300.457 	"/>
	<polygon opacity="0.02" points="545.56,287.635 574.979,300.457 562.979,306.492 	"/>
	<polygon opacity="0.2" points="545.56,310.37 539.752,305.735 543.977,319.113 539.043,326.76 532.009,301.381 541.185,300.457 	
		"/>
	<polygon opacity="0.25" points="539.043,326.76 532.009,316.294 532.009,301.381 	"/>
	<path fill="none" stroke="#FFFFFF" stroke-width="2" stroke-miterlimit="10" d="M541.185,524.014"/>
	<path opacity="0.04" d="M620.729,434.914c6.706-5.062-4.846,16.328-8.571,24.238c-29.798,63.393-105.367,90.638-168.782,60.841
		c-36.463-17.174-60.963-49.488-69.518-85.924C373.858,434.069,505.197,522.131,620.729,434.914z"/>
</g>
</svg>
